PathFileType	4	(X/Y/Z)	s11c0302.trc
DataRate	CameraRate	NumFrames	NumMarkers	Units	OrigDataRate	OrigDataStartFrame	OrigNumFrames
200	200	4	48	mm	200	1000	2000
Frame#	Time	racr			lacr			c7			jug			rlel			rdr			llel			ldr			s2			lic			ric			lasi			rasi			rpsi			lpsi			rgt			lgt			rth1			rth2			rth3			rth4			rlfc			rmfc			rsh1			rsh2			rsh3			rsh4			rlmal			rcal			rtoe			rmt5			lth1			lth2			lth4			lth3			llfc			lmfc			llmal			lcal			lmt5			lsh1			lsh2			lsh3			lsh4			ltoe			SBIKE			LBIKE			RBIKE			
		X1	Y1	Z1	X2	Y2	Z2	X3	Y3	Z3	X4	Y4	Z4	X5	Y5	Z5	X6	Y6	Z6	X7	Y7	Z7	X8	Y8	Z8	X9	Y9	Z9	X10	Y10	Z10	X11	Y11	Z11	X12	Y12	Z12	X13	Y13	Z13	X14	Y14	Z14	X15	Y15	Z15	X16	Y16	Z16	X17	Y17	Z17	X18	Y18	Z18	X19	Y19	Z19	X20	Y20	Z20	X21	Y21	Z21	X22	Y22	Z22	X23	Y23	Z23	X24	Y24	Z24	X25	Y25	Z25	X26	Y26	Z26	X27	Y27	Z27	X28	Y28	Z28	X29	Y29	Z29	X30	Y30	Z30	X31	Y31	Z31	X32	Y32	Z32	X33	Y33	Z33	X34	Y34	Z34	X35	Y35	Z35	X36	Y36	Z36	X37	Y37	Z37	X38	Y38	Z38	X39	Y39	Z39	X40	Y40	Z40	X41	Y41	Z41	X42	Y42	Z42	X43	Y43	Z43	X44	Y44	Z44	X45	Y45	Z45	X46	Y46	Z46	X47	Y47	Z47	X48	Y48	Z48	
1000	5.0000	760.062724	1377.466861	-37.814761	794.660757	1381.366285	-378.168737	752.106785	1470.510223	-214.258602	742.810252	1289.842125	-217.975380	650.165675	1129.367120	60.102542	792.918633	936.551846	-64.170015	651.506205	1173.878592	-581.443696	777.656883	922.063271	-464.188020	163.417208	1322.995666	-300.716498	402.433657	1264.430315	-460.234688	348.492178	1326.001445	-67.327211	410.577932	1199.028203	-412.500055	374.394143	1255.692209	-102.625810	211.662014	1393.717860	-254.633405	224.863533	1376.222462	-345.850253	303.321720	1208.844041	-42.120657	263.125443	1156.933850	-469.066597	418.434812	1118.774118	-28.396043	500.864073	1084.629425	-32.219037	555.520882	1015.571382	-37.171741	521.503717	1112.947770	-45.126810	640.163524	948.232735	-49.658330	653.290402	931.316086	-181.896820	550.584472	814.611781	-45.613096	512.629703	738.014732	-67.478732	440.860373	688.592694	-74.316480	535.757104	724.967623	-96.900808	335.792986	588.027151	-94.451933	275.914575	614.999303	-143.253245	480.156278	412.674728	-153.677999	410.671685	432.391488	-82.520777	288.475953	1026.046393	-476.269629	317.303356	946.736990	-467.817955	353.553153	949.114629	-461.818330	301.913077	858.388147	-462.725417	305.949050	715.368451	-441.930781	323.018157	702.109794	-313.752619	95.524061	340.201063	-420.587171	35.241194	342.369529	-383.795409	163.518555	178.963639	-452.813381	238.876571	607.197088	-461.312988	221.873347	524.605757	-448.170671	164.175148	457.670954	-441.911224	252.424351	512.031797	-427.637975	255.335314	140.496058	-386.935185	-214.933248	952.623657	-256.253411	-17.841908	81.437499	-460.848417	-17.769593	81.454271	-62.101685	
1001	5.0050	759.356237	1374.600262	-36.647413	794.579286	1378.626053	-374.192735	752.694910	1468.805591	-211.500206	741.186853	1287.803605	-215.907975	647.813165	1127.485433	60.696130	792.240202	936.342733	-63.373379	652.460816	1174.948623	-580.964816	777.062237	922.012226	-463.313344	163.814346	1327.055669	-299.981696	402.085908	1268.134168	-459.812003	348.850235	1328.599689	-66.876896	409.985738	1202.793785	-412.185604	374.093730	1257.906510	-102.053841	212.160942	1397.701473	-253.500774	225.404491	1380.154206	-344.421585	302.609843	1211.509549	-42.223691	262.835105	1160.001127	-469.323005	416.103215	1119.478136	-29.395672	498.751045	1084.731454	-33.560734	552.377358	1014.801146	-39.054333	519.470843	1113.149392	-46.081865	636.637743	945.734391	-51.806820	648.934308	928.799781	-184.049906	548.822396	810.882697	-47.133380	511.592979	733.227088	-68.729400	441.210430	682.744983	-74.461323	535.348445	720.625752	-97.784054	338.008331	579.678949	-93.994799	276.589565	604.332492	-141.982967	488.403571	410.128849	-154.047584	418.436361	426.933778	-82.327325	290.790050	1028.499781	-476.851146	321.411059	949.747420	-468.764562	357.533241	952.984876	-462.647116	307.970693	861.115391	-464.368332	313.402703	718.419790	-444.388879	331.219968	705.082011	-317.014474	92.694906	349.367639	-421.284707	32.595989	352.772953	-383.841264	156.260002	185.658101	-452.425389	243.622417	612.022607	-463.523972	224.291705	530.039514	-449.902957	164.676592	464.840079	-443.248156	254.453570	516.713098	-429.146024	246.800045	144.526920	-386.782077	-214.855906	952.675545	-255.892706	-17.836500	81.686409	-460.703573	-17.765731	81.466868	-62.073006	
1002	5.0100	758.772752	1371.539990	-35.694351	794.083582	1374.068200	-369.628535	753.499390	1466.802385	-208.641278	739.390027	1286.069549	-213.769771	645.052340	1125.608668	61.398201	791.369269	936.458118	-62.616469	652.763665	1175.523496	-580.757577	776.279256	922.270727	-462.478022	164.177527	1330.980414	-298.629264	401.507769	1271.973648	-459.452933	349.367289	1331.188992	-66.369625	409.368346	1206.283458	-412.433070	373.791123	1259.704321	-101.217411	213.146909	1401.430314	-252.599432	226.139032	1384.199885	-343.274555	301.927794	1213.905216	-42.213738	262.595988	1163.227155	-469.628444	417.768002	1121.969670	-26.572413	496.180357	1084.148646	-35.039145	548.669511	1013.340969	-41.001765	517.981713	1111.053993	-49.976107	632.663656	942.356969	-54.196804	644.051598	925.130825	-186.610733	546.196921	806.335189	-48.670872	510.145421	727.840305	-69.577497	440.830109	675.930333	-74.627856	534.250521	715.478809	-98.639681	339.715978	570.456910	-93.341317	276.560162	592.869858	-140.724945	496.098048	407.169077	-154.103009	425.700107	420.870261	-82.093734	293.369171	1030.864272	-477.505820	325.873194	952.859926	-469.786380	361.911629	956.906347	-463.423026	314.594989	863.845926	-466.110315	321.507602	721.733372	-446.918616	340.022013	707.995485	-320.136911	90.526216	359.086721	-422.141182	30.665794	363.547571	-384.316283	149.360214	192.739104	-452.166268	248.775098	617.237943	-465.836455	227.168972	535.781494	-451.603998	165.772095	472.386685	-444.615194	256.909854	521.383914	-430.129156	238.693711	148.999677	-386.718480	-214.808700	952.779463	-255.540747	-17.831552	81.840614	-460.636305	-17.772606	81.486191	-62.032749	
1003	5.0150	758.250482	1368.340115	-34.728910	794.284595	1369.049510	-366.503934	754.529386	1464.803567	-205.979551	737.478342	1284.445532	-211.975862	642.029594	1123.711383	62.553031	790.013136	936.659424	-62.042961	652.439971	1175.492068	-580.707336	774.989455	922.590802	-461.824440	165.450481	1334.709629	-297.986357	400.714098	1275.894758	-459.266267	349.837411	1333.690771	-65.568800	408.783290	1209.240713	-413.122900	373.335957	1261.222642	-100.172040	214.152593	1404.932656	-251.615745	226.865174	1387.814461	-342.179472	301.118847	1215.895302	-42.253380	262.274160	1166.231822	-469.784039	418.628883	1125.127459	-24.727748	493.200328	1082.663510	-36.610887	544.352429	1011.015378	-42.997592	515.529245	1109.319749	-51.440292	628.143017	938.121094	-56.780330	638.420137	920.475330	-188.755363	543.137967	800.600940	-50.168724	508.361650	721.384562	-70.406626	439.875022	668.284593	-74.755163	532.436052	709.223933	-99.615657	340.647080	560.402608	-92.717027	275.972884	580.545826	-139.876791	502.956755	403.723337	-153.874763	432.296297	414.191120	-81.809158	296.107152	1033.300771	-478.294347	330.655692	956.039625	-470.874744	366.517722	960.950154	-464.241919	321.639762	866.821620	-467.954984	330.143032	725.286588	-449.527405	348.715807	710.992376	-322.954417	88.941643	369.180637	-423.090656	29.264618	374.705524	-384.945115	143.003505	200.210811	-451.959371	254.387154	622.660083	-468.095462	230.506288	541.998206	-453.451435	167.408381	480.325272	-446.149822	259.876072	526.850110	-431.837415	230.978637	154.056882	-386.710435	-214.724065	952.831847	-255.210678	-17.850897	81.985032	-460.575074	-17.780969	81.465401	-61.963541	
